<svg width="97" height="56" viewBox="0 0 97 56" fill="none" xmlns="http://www.w3.org/2000/svg">
<g clip-path="url(#clip0_12_590)">
<path d="M86.8364 41.8684C82.7022 41.8684 79.3467 45.0312 79.3467 48.9493C79.3467 52.8674 82.6988 56.0303 86.8364 56.0303C90.974 56.0303 94.3296 52.8674 94.3296 48.9493C94.3296 45.0312 90.974 41.8684 86.8364 41.8684Z" fill="#0057B8"/>
<path d="M77.4072 0L80.6043 31.5135H78.1548L86.8297 39.7071L86.8572 39.6835L86.8469 39.7071L95.5218 31.5135H93.0723L96.2728 0H77.4072Z" fill="#0057B8"/>
<path d="M53.4536 50.2409C52.6784 50.2124 51.9288 49.9615 51.2981 49.5192C50.6675 49.077 50.1837 48.4629 49.907 47.7536C49.6302 47.0443 49.5727 46.2709 49.7416 45.5298C49.9105 44.7887 50.2984 44.1127 50.857 43.5857C51.4156 43.0588 52.1201 42.7042 52.883 42.5662C53.6459 42.4283 54.4334 42.5129 55.1475 42.8097C55.8616 43.1064 56.4708 43.6022 56.8991 44.2353C57.3275 44.8683 57.5562 45.6107 57.5568 46.37C57.5368 47.4158 57.0934 48.411 56.324 49.1369C55.5546 49.8627 54.5221 50.2598 53.4536 50.2409ZM53.4536 39.3059C49.3194 39.3059 45.9639 42.4687 45.9639 46.3868C45.9639 50.305 49.316 53.4678 53.4536 53.4678C57.5912 53.4678 60.9468 50.305 60.9468 46.3868C60.9468 42.4687 57.5912 39.3059 53.4536 39.3059Z" fill="black"/>
<path d="M18.8223 13.5077C18.2934 13.5176 17.7677 13.4253 17.2752 13.2363C16.7827 13.0472 16.3331 12.765 15.9521 12.4059C15.5711 12.0467 15.2661 11.6176 15.0545 11.1431C14.8429 10.6685 14.729 10.1579 14.7191 9.64019C14.7501 8.5957 15.1957 7.60413 15.9615 6.87603C16.7273 6.14794 17.7529 5.74065 18.8206 5.74065C19.8882 5.74065 20.9138 6.14794 21.6796 6.87603C22.4454 7.60413 22.8911 8.5957 22.922 9.64019C22.9021 10.6851 22.459 11.6794 21.6902 12.4047C20.9215 13.1299 19.8899 13.5267 18.8223 13.5077ZM18.8223 2.57275C14.6881 2.57275 11.3291 5.73557 11.3291 9.65368C11.3291 13.5718 14.6847 16.7346 18.8223 16.7346C22.9599 16.7346 26.312 13.5718 26.312 9.67054C26.312 5.76929 22.9599 2.58961 18.8223 2.58961" fill="black"/>
<path d="M35.1108 13.5077C34.0432 13.5267 33.0117 13.1299 32.2429 12.4047C31.4741 11.6794 31.031 10.6851 31.0111 9.64019C31.042 8.5957 31.4877 7.60413 32.2535 6.87603C33.0193 6.14794 34.0449 5.74065 35.1125 5.74065C36.1802 5.74065 37.2058 6.14794 37.9716 6.87603C38.7374 7.60413 39.1831 8.5957 39.214 9.64019C39.2041 10.1579 39.0902 10.6685 38.8786 11.1431C38.6671 11.6176 38.362 12.0467 37.981 12.4059C37.6 12.765 37.1504 13.0472 36.6579 13.2363C36.1654 13.4253 35.6397 13.5176 35.1108 13.5077ZM35.1108 2.57275C30.9767 2.57275 27.6211 5.73557 27.6211 9.65368C27.6211 13.5718 30.9732 16.7346 35.1108 16.7346C39.2484 16.7346 42.604 13.5718 42.604 9.67054C42.604 5.76929 39.2484 2.58961 35.1108 2.58961" fill="black"/>
<path d="M71.1579 39.5048L71.251 48.0221L65.5734 39.5048H62.5244V53.1945H65.7008L65.6078 44.684L71.2888 53.1945H74.3481V39.5048H71.1579Z" fill="black"/>
<path d="M7.83267 42.8228L9.14182 46.633H6.52007L7.83267 42.8228ZM5.87238 39.4948L0.818359 53.198H4.2635L5.4314 49.7992H10.2305L11.3949 53.1913H14.8642L9.79984 39.5015L5.87238 39.4948Z" fill="black"/>
<path d="M4.97997 11.2351H9.85829V8.08238H4.99031V5.94124H9.91686V2.79529H1.7002V16.4851H4.97997V11.2351Z" fill="black"/>
<path d="M29.6133 42.6777H33.055V53.1946H36.3416V42.6777H39.8212V39.5082H29.6133V42.6777Z" fill="black"/>
<path d="M60.554 26.786H57.7289V24.1357H60.4127C60.5937 24.1356 60.7728 24.1722 60.9386 24.2432C61.1044 24.3143 61.2533 24.4182 61.376 24.5484C61.4987 24.6787 61.5925 24.8324 61.6515 24.9999C61.7104 25.1674 61.7332 25.345 61.7184 25.5216C61.7216 25.8368 61.6036 26.1417 61.388 26.3759C61.1723 26.6101 60.8747 26.7564 60.554 26.786ZM61.5668 29.2576C61.8666 29.2576 65.0878 28.8766 65.0878 25.2114C65.0878 22.352 62.7313 21.1348 60.5367 21.1348H54.4561V34.838H57.7221V29.5577L62.1525 34.8245H66.3556L61.5668 29.2576Z" fill="black"/>
<path d="M14.1825 30.1276L12.0155 21.4922H8.71161L6.57906 30.104L4.82204 21.1584H1.38379L4.61878 34.8347H8.10182L10.3343 26.0881L12.6494 34.8415H16.0429L19.2916 21.155H15.9361L14.1825 30.1276Z" fill="black"/>
<path d="M24.1001 28.2933L25.4127 24.4763L26.7253 28.2933H24.1001ZM20.3105 29.642L18.3984 34.8448H21.8436L23.0115 31.4729H27.8347L28.9957 34.8448H32.4443L27.3799 21.155H23.4525L20.3105 29.642Z" fill="black"/>
<path d="M51.8549 31.7461H46.9249V29.1497H51.8066V26.0544H46.9318V24.2335H51.8583V21.155H43.6348V34.8415H51.8549V31.7461Z" fill="black"/>
<path d="M38.1498 34.8381V24.328H41.6191V21.155H31.4111V24.328H34.8563V34.8381H38.1498Z" fill="black"/>
<path d="M44.4446 39.5048H41.1924V53.1912H44.4446V39.5048Z" fill="black"/>
<path d="M47.5342 13.3223V5.96821H49.0018C50.1146 5.96821 52.8432 6.58189 52.8432 9.64355C52.8432 12.8873 50.1249 13.3223 49.0018 13.3223H47.5342ZM49.0776 16.5222C49.6227 16.5158 50.1655 16.4525 50.6968 16.3333C52.4015 16.028 53.9242 15.1005 54.957 13.7385C55.9898 12.3765 56.4558 10.6815 56.2607 8.99615C56.1978 7.99956 55.8978 7.03116 55.3846 6.16823C54.8714 5.30529 54.1592 4.57171 53.3048 4.02601C52.0484 3.20909 50.5722 2.77602 49.0638 2.7818H44.251V16.5222H49.0776Z" fill="black"/>
<path d="M64.9222 7.36421C64.8498 7.27317 64.2711 6.63589 64.2711 6.17057C64.2663 6.05977 64.2849 5.9492 64.3256 5.84571C64.3663 5.74222 64.4283 5.64803 64.5078 5.56899C64.5873 5.48994 64.6825 5.42773 64.7876 5.3862C64.8926 5.34468 65.0053 5.32473 65.1186 5.3276C65.2255 5.32492 65.3318 5.34298 65.4316 5.38076C65.5313 5.41853 65.6224 5.47527 65.6996 5.54768C65.7768 5.6201 65.8385 5.70677 65.8813 5.80269C65.9241 5.8986 65.9471 6.00186 65.9488 6.1065C65.9609 6.28013 65.925 6.45373 65.845 6.60914C65.765 6.76455 65.6438 6.89607 65.4941 6.98993C65.2908 7.1383 65.0118 7.31363 64.9222 7.36421ZM64.0058 11.0193L65.7284 12.9885C65.3462 13.3545 64.8366 13.5654 64.3021 13.5786C64.1439 13.5835 63.9863 13.5573 63.8387 13.5014C63.6911 13.4454 63.5566 13.361 63.4431 13.253C63.3296 13.1451 63.2395 13.0159 63.1781 12.8731C63.1167 12.7303 63.0854 12.5769 63.0859 12.422C63.0722 11.7375 63.7474 11.2419 64.0058 11.0193ZM64.1643 16.711C66.1487 16.711 67.6404 15.3623 67.7197 15.2915L68.7532 16.4784H72.8288L69.9797 13.1975L71.8607 11.2284V7.18213L67.9746 10.8844L66.7516 9.475C66.8584 9.39408 67.6886 8.76017 68.0538 8.43647C68.3929 8.10836 68.6582 7.71451 68.8326 7.28016C69.0071 6.84582 69.0868 6.38058 69.0667 5.91431C69.0667 4.08001 67.3855 2.59302 65.0772 2.59302C62.0317 2.59302 61.0809 4.88252 61.0809 5.94465C61.0809 7.39793 61.6596 8.05882 62.1764 8.97934C61.2083 9.84591 59.8096 10.6922 59.8096 12.8502C59.8027 14.3136 60.8638 16.711 64.1643 16.711Z" fill="black"/>
<path d="M25.9442 47.3748C25.694 48.2116 25.1704 48.9451 24.4535 49.4628C23.7367 49.9805 22.8661 50.2538 21.9754 50.2409H21.9444C20.8936 50.2409 19.8859 49.8323 19.1429 49.1051C18.3999 48.3779 17.9824 47.3916 17.9824 46.3632C17.9824 45.3348 18.3999 44.3485 19.1429 43.6213C19.8859 42.8941 20.8936 42.4856 21.9444 42.4856H21.9754C22.8508 42.4766 23.706 42.7435 24.4145 43.2469C25.123 43.7502 25.6473 44.4634 25.9097 45.2809H29.3376C29.034 43.5851 28.1231 42.0506 26.7682 40.9526C25.4134 39.8546 23.7032 39.2648 21.9444 39.289C17.8102 39.289 14.4512 42.4519 14.4512 46.37C14.4512 50.2881 17.8067 53.4509 21.9444 53.4509C23.7173 53.4736 25.4398 52.8729 26.7985 51.7578C28.1571 50.6427 29.0618 49.0875 29.348 47.3748H25.9442Z" fill="black"/>
</g>
<defs>
<clipPath id="clip0_12_590">
<rect width="95.4545" height="56" fill="white" transform="translate(0.818359)"/>
</clipPath>
</defs>
</svg>
